<?xml version="1.0" encoding="UTF-8"?>
<svg viewBox="0 0 645 645" version="1.1" xmlns="http://www.w3.org/2000/svg" xmlns:xlink="http://www.w3.org/1999/xlink">
    <!-- Generator: Sketch 64 (93537) - https://sketch.com -->
    <title>lamp-is-on</title>
    <desc>Created with Sketch.</desc>
    <g id="lamp-is-on" stroke="none" stroke-width="1" fill="none" fill-rule="evenodd">
        <g id="cube" transform="translate(90.000000, 192.000000)" fill-rule="nonzero">
            <g id="_lamp" transform="translate(0.078452, 0.891054)">
                <g id="XMLID_395_">
                    <path d="M32.4993473,57.5301709 L32.4993473,57.5301709 C42.1234969,63.210271 39.1263316,73.8092657 27.1033546,76.6134579 L27.1033546,76.6134579 C21.5182594,77.9159894 15.3224142,77.0928973 10.8514906,74.4547068 L10.8514906,74.4547068 C1.227341,68.7742427 4.22414121,58.175248 16.2467531,55.3714198 L16.2467531,55.3714198 C21.8325785,54.0692524 28.0287887,54.8919805 32.4993473,57.5301709 Z" id="XMLID_16287_" fill="#3B4550"></path>
                    <path d="M32.4993473,57.5301709 C28.0287887,54.8919805 21.8325785,54.0688884 16.2467531,55.3714198 C9.21016841,57.0125075 5.26676046,61.3245492 5.1349728,65.7574517 C5.23390481,68.739659 7.06615481,71.7338795 10.8511255,73.9676227 C15.3216841,76.6058131 21.5178944,77.4292693 27.1029895,76.1263738 C34.1403044,74.4852861 38.0833473,70.1736085 38.2151349,65.7407059 C38.1158379,62.7588627 36.284318,59.7642781 32.4993473,57.5301709 Z" id="Path" fill="#303940"></path>
                    <path d="M10.8514906,73.9679867 C15.3220492,76.6061771 21.5182594,77.4296333 27.1033546,76.1267378 C34.1406695,74.4856501 38.0837123,70.1739725 38.2155,65.74107 C38.1158379,62.7588627 36.284318,59.7646422 32.4993473,57.530535 C28.0287887,54.8923446 21.8325785,54.0692524 16.2467531,55.3717839" id="Path" fill="#262E33"></path>
                    <path d="M18.3367374,54.9862666 C18.3323567,60.1563481 18.3374676,71.7837529 18.3411182,76.4936891 C20.5311297,76.8053065 22.8105816,76.8169557 25.0414801,76.5078866 C25.0571778,71.7389761 25.0546224,60.1963924 25.04075,55.008837 C22.8492782,54.6943074 20.5687312,54.6797458 18.3367374,54.9862666 Z" id="Path" fill="#8994A7" opacity="0.2"></path>
                    <path d="M25.0254174,37.9976599 C24.9976726,37.4024562 24.6267688,36.8068884 23.871819,36.3613047 L23.871819,36.3613047 C22.9690188,35.8279876 21.7172186,35.6623499 20.5884446,35.925186 L20.5884446,35.925186 C19.16616,36.2571895 18.369228,37.1286988 18.3440387,38.0249628 C18.3261506,38.6289035 18.3411182,63.481116 18.3433086,64.0977981 C18.3447688,64.7159362 18.7142123,65.3402631 19.4987322,65.8036847 L19.4987322,65.8036847 C20.4018975,66.3366377 21.6533326,66.5026395 22.7817416,66.2398034 L22.7817416,66.2398034 C24.1733609,65.9154446 24.9666423,65.0734225 25.0243222,64.1979088 C25.0652092,63.5750381 25.0564477,38.6380044 25.0254174,37.9976599 Z" id="XMLID_16286_" fill="#303940"></path>
                    <path d="M20.5136067,39.4589123 C19.9003013,39.0970576 19.1260031,38.905209 18.3389278,38.9008406 C18.3290711,43.4047307 18.3411182,63.5430027 18.3433086,64.0977981 C18.3447688,64.7159362 18.7142123,65.3402631 19.4987322,65.8036847 C20.1131328,66.1662675 20.8888912,66.3584801 21.6774268,66.3617564 C21.7051715,61.7355492 21.6949498,41.669721 21.6675701,41.0959956 C21.6394603,40.5004278 21.2685565,39.9048601 20.5136067,39.4589123 Z" id="Path" fill="#3B4550"></path>
                    <path d="M19.9879163,41.9817024 C19.9598065,41.3868627 19.5889027,40.7909309 18.8339529,40.3449832 C18.6780711,40.2528813 18.5112374,40.1720647 18.3374676,40.1021692 C18.3301663,46.199822 18.3411182,63.5826829 18.3433086,64.097434 C18.3447688,64.7155722 18.7142123,65.339899 19.4987322,65.8033206 C19.6568044,65.8965146 19.8261935,65.9780593 20.003614,66.0486829 C20.0236925,59.8840469 20.0138358,42.5146554 19.9879163,41.9817024 Z" id="Path" fill="#4D5863"></path>
                    <path d="M22.7817416,59.8840469 C21.6533326,60.1472471 20.4015324,59.9812453 19.4987322,59.4475642 C18.7142123,58.9848707 18.3447688,58.3601798 18.3433086,57.7427697 L18.3433086,58.6201036 C18.3447688,59.2378778 18.7142123,59.8622046 19.4987322,60.3252622 C20.4018975,60.8582152 21.6533326,61.024581 22.7817416,60.7613809 C24.1733609,60.4370221 24.9666423,59.595 25.0243222,58.7194863 L25.0243222,57.8421523 C24.9666423,58.7176661 24.1733609,59.5596882 22.7817416,59.8840469 Z" id="Path" fill="#838C9A" opacity="0.2"></path>
                    <path d="M22.7817416,57.8068406 C21.6533326,58.0700407 20.4015324,57.9036749 19.4987322,57.3707219 C18.7142123,56.9076643 18.3447688,56.2833375 18.3433086,55.6651993 L18.3433086,56.5425332 C18.3447688,57.1606714 18.7142123,57.7846342 19.4987322,58.2476918 C20.4018975,58.7810089 21.6533326,58.9473747 22.7817416,58.6845385 C24.1733609,58.3594517 24.9666423,57.5177936 25.0243222,56.6419159 L25.0243222,55.7645819 C24.9666423,56.6404597 24.1733609,57.4824818 22.7817416,57.8068406 Z" id="Path" fill="#838C9A" opacity="0.2"></path>
                    <path d="M22.7817416,55.7292702 C21.6533326,55.9924703 20.4015324,55.8261045 19.4987322,55.2931515 C18.7142123,54.8300939 18.3447688,54.2057671 18.3433086,53.5876289 L18.3433086,54.4649628 C18.3447688,55.0827369 18.7142123,55.7074278 19.4987322,56.1704854 C20.4018975,56.7034384 21.6533326,56.8694402 22.7817416,56.6066041 C24.1733609,56.2818813 24.9666423,55.4402232 25.0243222,54.5643454 L25.0243222,53.6870115 C24.9666423,54.5628893 24.1733609,55.4052755 22.7817416,55.7292702 Z" id="Path" fill="#838C9A" opacity="0.2"></path>
                    <path d="M31.2037395,5.32224978 C30.7079843,4.05685031 29.7036967,2.86098229 28.1485293,1.89081842 C26.384181,0.790692648 24.1693452,0.200949513 21.9066862,0.155444641 C21.7248849,0.137970771 21.5423536,0.139426926 21.3598222,0.15580868 C20.3715973,0.175102746 19.381182,0.288318866 18.4199718,0.525308237 L18.4199718,0.525308237 C15.1201695,1.3385713 12.9568075,3.18825332 12.1376067,5.29895128 C11.8758567,5.97169531 0.307747908,27.7718051 0.342714465,33.6120824 C0.365792887,37.5473437 2.72482845,41.5237414 7.72144247,44.4728211 L7.72144247,44.4728211 C13.4872437,47.8754934 21.4781025,48.936667 28.6807908,47.2562631 L28.6807908,47.2562631 C37.8409456,45.1197183 42.9390471,39.47493 43.018099,33.7027281 C43.0733902,29.704124 31.4695052,6.00009035 31.2037395,5.32224978 Z" id="XMLID_16285_" fill="#EBB200"></path>
                    <path d="M25.0521048,52.7601683 C25.0527971,45.8645421 25.0429404,38.3453171 25.0257824,37.9976599 C24.9980377,37.4024562 24.6271339,36.8068884 23.8721841,36.3613047 C22.9693839,35.8279876 21.7175837,35.6623499 20.5888096,35.925186 C19.1665251,36.2571895 18.3695931,37.1286988 18.3444038,38.0249628 C18.3345471,38.354054 18.3345471,45.8681825 18.3371025,52.7466988 C20.5453672,52.990605 22.8120418,52.9975217 25.0521048,52.7601683 Z" id="Path" fill="#8994A7" opacity="0.2"></path>
                    <path d="M21.9066862,0.155444641 C21.7248849,0.137970771 21.5423536,0.139426926 21.3598222,0.15580868 C20.3715973,0.175102746 19.381182,0.288318866 18.4199718,0.525308237 L18.4199718,0.525308237 C15.1201695,1.3385713 12.9568075,3.18825332 12.1376067,5.29895128 C11.8758567,5.97169531 0.307747908,27.7718051 0.342714465,33.6120824 C0.365792887,37.5473437 2.72482845,41.5237414 7.72144247,44.4728211 L7.72144247,44.4728211 C13.4872437,47.8754934 21.4781025,48.936667 28.6807908,47.2562631 L28.6807908,47.2562631" id="XMLID_407_" fill="#FECE00"></path>
                    <path d="M21.9066862,0.155444641 C21.7248849,0.137970771 21.5423536,0.139426926 21.3598222,0.15580868 C20.3715973,0.175102746 19.381182,0.288318866 18.4199718,0.525308237 L18.4199718,0.525308237 C15.1201695,1.3385713 12.9568075,3.18825332 12.1376067,5.29895128 C11.8758567,5.97169531 0.307747908,27.7718051 0.342714465,33.6120824 C0.365792887,37.5473437 2.72482845,41.5237414 7.72144247,44.4728211 L7.72144247,44.4728211" id="XMLID_405_" fill="#FDF900"></path>
                    <path d="M7.72180753,36.270295 C13.4876088,39.6726032 21.4784676,40.7341408 28.6811559,39.054101 L28.6811559,39.054101 C35.0953086,37.5579008 39.5169487,34.3416165 41.6193452,30.5658043 C41.5138421,30.2840381 41.403228,29.993899 41.2896935,29.6979353 C39.0748577,33.2327538 34.7798944,36.2113206 28.6811559,37.6336209 L28.6811559,37.6336209 C21.4784676,39.3136608 13.4876088,38.2517591 7.72180753,34.8498149 C5.0261841,33.2586005 3.09974791,31.3677821 1.89212029,29.3459097 C1.78406172,29.6415093 1.68074895,29.9320124 1.58145188,30.2166909 C2.75731904,32.4449734 4.78232218,34.5356492 7.72180753,36.270295 Z" id="Path" fill="#F7AA3C" opacity="0.6"></path>
                    <path d="M27.3563431,2.37317006 L27.3563431,2.37317006 C32.4128274,5.52683968 30.8379467,11.4122578 24.5212657,12.9692524 L24.5212657,12.9692524 C21.5868912,13.6925979 18.3308964,13.2353649 15.9820826,11.7704721 L15.9820826,11.7704721 C10.9255983,8.61680248 12.5004791,2.73102037 18.8178902,1.17402569 L18.8178902,1.17402569 C21.7518996,0.450316209 25.0075293,0.907913198 27.3563431,2.37317006 Z" id="XMLID_403_" fill="#26225B"></path>
                    <path d="M28.0017741,1.83948893 L28.0017741,1.83948893 C33.6325021,5.35100886 31.8791056,11.9051665 24.8454414,13.6387201 L24.8454414,13.6387201 C21.5777646,14.4447024 17.9526914,13.9350478 15.3373818,12.3037892 L15.3373818,12.3037892 C9.70665377,8.79226926 11.4600502,2.23883968 18.4940795,0.504558016 L18.4940795,0.504558016 C21.7613912,-0.301424269 25.3864644,0.208230292 28.0017741,1.83948893 Z" id="XMLID_404_" fill="#DFCF4E"></path>
                    <g id="_bulb_off" transform="translate(17.157950, 3.640390)">
                        <path d="M0.0613305439,4.32405492 C0.0613305439,5.80824181 1.10869561,8.24111426 1.67162238,9.31393711 C3.47576255,9.76607352 5.46498954,9.78973605 7.32790481,9.33650753 C7.89484728,8.24329849 8.9524341,5.70085031 8.9524341,4.32369088 C8.95279916,2.66076085 0.0613305439,2.5024039 0.0613305439,4.32405492 Z" id="XMLID_402_" fill="#FFEA00"></path>
                        <path d="M7.41551987,1.25338618 L7.41551987,1.25338618 C9.9965136,3.31675908 9.19228033,7.16829141 5.9673159,8.18723649 L5.96804603,8.18723649 C4.46946339,8.6608512 2.80696757,8.36161116 1.60810146,7.40273251 L1.60810146,7.40273251 C-0.973622385,5.33935961 -0.169389121,1.48782728 3.05557531,0.468882197 L3.05557531,0.468882197 C4.55342782,-0.00436846767 6.21592364,0.294507529 7.41551987,1.25338618 Z" id="XMLID_400_" fill="#E4FF27"></path>
                        <path d="M6.16481485,4.63275996 C6.16481485,2.34695926 3.71779916,0.259559787 3.05521025,0.468882197 L3.05521025,0.468882197 C1.20178661,1.05425686 0.150405858,2.59668999 0.0792186192,4.19336492 C0.0682667364,4.23522941 0.0613305439,4.27855004 0.0613305439,4.32405492 C0.0613305439,5.80824181 1.10869561,8.24111426 1.67162238,9.31393711 C2.84931485,9.60953676 4.10549582,9.72020461 5.35437552,9.6361116 C5.59020607,9.17815058 6.16481485,7.50648361 6.16481485,4.63275996 Z" id="XMLID_399_" fill="#F2FF00"></path>
                    </g>
                </g>
            </g>
        </g>
    </g>
</svg>