<?xml version="1.0" encoding="UTF-8"?>
<svg viewBox="0 0 641 641" version="1.1" xmlns="http://www.w3.org/2000/svg" xmlns:xlink="http://www.w3.org/1999/xlink">
    <!-- Generator: Sketch 64 (93537) - https://sketch.com -->
    <title>lamp-is-on</title>
    <desc>Created with Sketch.</desc>
    <g id="lamp-is-on" stroke="none" stroke-width="1" fill="none" fill-rule="evenodd">
        <g id="cube" transform="translate(107.000000, 196.000000)" fill="#FEFF00" fill-rule="nonzero">
            <g id="_bulb_on" transform="translate(0.236402, 0.531444)">
                <path d="M7.22235462,1.10748542 L7.41551987,1.25338618 C8.44561096,2.07689149 8.93648308,3.18522539 8.9494512,4.28463768 L8.9524341,4.32369088 C8.9524341,4.40062882 8.94913323,4.48120378 8.94280145,4.56495988 C8.93268281,4.72132649 8.91349968,4.8760606 8.88498241,5.02927236 L8.87942932,5.0528922 C8.63069145,6.46759807 7.80533005,8.41591045 7.32790481,9.33650753 C5.46498954,9.78973605 3.47576255,9.76607352 1.67162238,9.31393711 C1.10869561,8.24111426 0.0613305439,5.80824181 0.0613305439,4.32405492 C0.0613305439,4.32371442 0.0613308546,4.32337399 0.0613314758,4.32303364 C0.0614342928,4.27790355 0.0683484669,4.23491699 0.0792186192,4.19336492 L0.0684683341,4.23576909 C0.070383851,4.22407302 0.0726805736,4.21246437 0.0753532527,4.20094302 C0.121232465,2.80719916 0.932991429,1.45186809 2.38494694,0.737208061 C2.39483192,0.733100979 2.40380641,0.728696042 2.41280526,0.724316141 C2.46639081,0.697671745 2.52174794,0.672201054 2.57798863,0.647658621 C2.59613668,0.640004193 2.61415294,0.632243024 2.63225901,0.624579351 C2.67770644,0.605223621 2.72369625,0.586675563 2.77024641,0.56874349 C2.86277005,0.532998941 2.95788435,0.499621049 3.05521025,0.468882197 L2.84591167,0.540321187 C2.85098843,0.538462402 2.85607167,0.536610857 2.86116137,0.534766573 L2.99033054,0.489994254 L3.05521025,0.468882197 L3.05733054,0.466994254 L3.29335508,0.400558626 C4.64749011,0.0495669924 6.10698985,0.311980179 7.22235462,1.10748542 Z" id="Combined-Shape"></path>
            </g>
        </g>
    </g>
</svg>