<?xml version="1.0" encoding="UTF-8"?>
<svg viewBox="0 0 645 645" version="1.1" xmlns="http://www.w3.org/2000/svg" xmlns:xlink="http://www.w3.org/1999/xlink">
    <!-- Generator: Sketch 64 (93537) - https://sketch.com -->
    <title>switch-toggled-off</title>
    <desc>Created with Sketch.</desc>
    <g id="switch-toggled-off" stroke="none" stroke-width="1" fill="none" fill-rule="evenodd">
        <g id="cube" transform="translate(524.000000, 232.000000)" stroke="#979797">
            <g id="_switch">
                <g id="Group" transform="translate(0.144097, 0.690581)">
                    <path d="M9.32585656,0.16978308 L41.0348201,15.9651451 C42.7697512,16.9685725 44.001919,18.0631187 44.7313235,19.2487838 C45.1393305,19.9120091 45.9100231,20.9586677 46.3022255,22.1646527 C46.5081908,22.7979763 46.688706,23.879005 46.8437711,25.4077388 L46.8437711,54.9445456 C46.8115984,55.8736309 46.5597167,56.5649821 46.0881261,57.0185993 C45.0256811,58.040552 41.613782,59.6087305 40.7993107,60.1088442 C39.4425569,60.9419383 38.3067571,61.1550956 37.3919115,60.7483161 L5.64628518,45.0100074 C4.97711954,44.6111473 4.29307423,44.1169421 3.59414924,43.5273918 C2.54576176,42.6430663 1.77680338,41.3567939 1.33218189,40.6577388 C0.419041304,39.2220556 -0.0246669141,37.7142461 0.00105723166,36.1343105 L0.00105723166,6.71790285 C0.145562678,4.76163803 0.756748884,3.46775499 1.83461585,2.83625375 C2.57093807,2.40485691 4.91159034,0.901839739 7.03611225,0.16978308 C7.69308849,-0.05659436 8.4563366,-0.05659436 9.32585656,0.16978308 Z" id="Path-2" fill="#FFFFFF"></path>
                    <path d="M40.7993107,60.1088442 C40.368663,60.3778195 41.43872,59.5454964 41.6783778,58.8801016 C41.8381496,58.4365051 41.9584931,57.6984019 42.0394082,56.665792 L42.0394082,27.1776483 C41.8066833,25.6466739 41.5807827,24.5813534 41.3617065,23.9816871 C40.9627604,22.8896718 40.2290971,22.0131525 39.8814819,21.4657503 C39.247534,20.4674496 38.1382751,19.4919042 36.5537053,18.539114 L6.79836394,3.6835925 C5.55588067,3.09104037 4.62979573,2.7136685 4.02010913,2.55147689 C3.41042254,2.38928528 2.94952573,2.34581946 2.6374187,2.42107943 C3.82774617,1.682883 4.67259927,1.20308096 5.171978,0.981673302 C5.9210461,0.649561818 7.19583563,4.06977529e-15 8.19448806,4.06977529e-15 C8.86025635,4.06977529e-15 9.48641553,0.180233056 10.0729656,0.540699169 L41.1632797,15.9993351 C42.5302042,16.6887286 43.696533,17.6925909 44.662266,19.010922 C45.2111171,19.7601638 45.8853826,20.7950507 46.3022255,22.1646527 C46.5133019,22.8581768 46.728031,24.0855909 46.9464129,25.8468951 L46.8437711,54.5093047 C46.8657983,55.3816532 46.760661,56.0167436 46.5283593,56.4145759 C46.3401871,56.7368334 45.9190578,57.170617 45.6238592,57.4440865 C44.3610993,58.6138972 41.2299584,59.8398689 40.7993107,60.1088442 Z" id="Path-3" fill="#AFAFAF"></path>
                    <path d="M9.32585656,0.16978308 L41.0348201,15.9651451 C42.7697512,16.9685725 44.001919,18.0631187 44.7313235,19.2487838 C45.1393305,19.9120091 45.9100231,20.9586677 46.3022255,22.1646527 C46.5081908,22.7979763 46.688706,23.879005 46.8437711,25.4077388 L46.8437711,54.9445456 C46.8115984,55.8736309 46.5597167,56.5649821 46.0881261,57.0185993 C45.0256811,58.040552 41.613782,59.6087305 40.7993107,60.1088442 C39.4425569,60.9419383 38.3067571,61.1550956 37.3919115,60.7483161 L5.64628518,45.0100074 C4.97711954,44.6111473 4.29307423,44.1169421 3.59414924,43.5273918 C2.54576176,42.6430663 1.77680338,41.3567939 1.33218189,40.6577388 C0.419041304,39.2220556 -0.0246669141,37.7142461 0.00105723166,36.1343105 L0.00105723166,6.71790285 C0.00926670829,4.89126639 0.552304929,3.66219753 1.63017189,3.03069628 C2.36649411,2.59929945 4.91159034,0.901839739 7.03611225,0.16978308 C7.69308849,-0.05659436 8.4563366,-0.05659436 9.32585656,0.16978308 Z" id="Path-2"></path>
                </g>
                <g id="Group" transform="translate(5.144097, 12.690581)">
                    <path d="M6.36276957,0.211789425 L27.9262805,10.8005482 C29.1061111,11.4732172 29.9440403,12.2069697 30.4400679,13.0018056 C30.7175308,13.4464129 31.2416362,14.1480629 31.5083514,14.9565207 C31.648417,15.3810828 31.7711754,16.1057735 31.8766266,17.1305929 L31.8766266,36.9312231 C31.8547477,37.5540553 31.6834569,38.0175174 31.3627542,38.3216093 C30.6402442,39.0066972 28.3200005,40.0579592 27.7661236,40.3932211 C26.8434704,40.9517035 26.0710759,41.0945981 25.44894,40.8219048 L3.86049674,30.2713929 C3.40543423,30.0040085 2.94025288,29.6727075 2.46495268,29.2774898 C1.75200238,28.6846633 1.22907635,27.8223831 0.926713883,27.3537566 C0.305737517,26.3913156 0.00399611812,25.3805233 0.0214896858,24.3213796 L0.0214896858,4.60146157 C0.119759841,3.29003761 0.53539375,2.42265544 1.26839141,1.99931507 C1.76912339,1.71011897 3.36087145,0.702539264 4.8056412,0.211789425 C5.25241438,0.0600324655 5.77145717,0.0600324655 6.36276957,0.211789425 Z" id="Path-2" fill="#E7E7E7"></path>
                    <path d="M27.6971506,40.3538948 C27.404349,40.5340322 28.1318913,39.9766112 28.2948371,39.5309849 C28.4034675,39.2339007 28.4852903,38.7395803 28.5403052,38.0480238 L28.5403052,18.2993086 C28.3820732,17.2739887 28.2284812,16.5605254 28.0795291,16.1589185 C27.8082817,15.4275772 27.3094567,14.8405572 27.0731097,14.4739526 C26.6420822,13.8053735 25.887886,13.152034 24.8105212,12.5139341 L4.57956853,2.56493673 C3.73479178,2.16809442 3.10513742,1.91536201 2.69060543,1.80673951 C2.27607345,1.698117 1.96270512,1.6690072 1.75050045,1.71941009 C2.55981594,1.22502729 3.13423997,0.903695642 3.47377254,0.75541514 C3.98307139,0.532994387 4.84981348,0.0979717052 5.52880721,0.0979717052 C5.9814697,0.0979717052 6.40720155,0.218676872 6.80600277,0.460087206 L27.9446168,10.8130006 C28.8740024,11.2746993 29.6670009,11.9470031 30.3236123,12.829912 C30.6967817,13.3316921 31.1552215,14.0247735 31.4386372,14.9420195 C31.5821501,15.4064845 31.7281465,16.2285047 31.8766266,17.4080803 L31.8068394,36.6037873 C31.8218159,37.188014 31.750332,37.6133449 31.5923878,37.87978 C31.4644476,38.0956014 31.1781176,38.3861137 30.9774092,38.569261 C30.1188461,39.3527032 27.9899523,40.1737575 27.6971506,40.3538948 Z" id="Path-3" fill="#AFAFAF"></path>
                    <path d="M6.36276957,0.211789425 L27.9262805,10.8005482 C29.1061111,11.4732172 29.9440403,12.2069697 30.4400679,13.0018056 C30.7175308,13.4464129 31.2416362,14.1480629 31.5083514,14.9565207 C31.648417,15.3810828 31.7711754,16.1057735 31.8766266,17.1305929 L31.8766266,36.9312231 C31.8547477,37.5540553 31.6834569,38.0175174 31.3627542,38.3216093 C30.6402442,39.0066972 28.3200005,40.0579592 27.7661236,40.3932211 C26.8434704,40.9517035 26.0710759,41.0945981 25.44894,40.8219048 L3.86049674,30.2713929 C3.40543423,30.0040085 2.94025288,29.6727075 2.46495268,29.2774898 C1.75200238,28.6846633 1.22907635,27.8223831 0.926713883,27.3537566 C0.305737517,26.3913156 0.00399611812,25.3805233 0.0214896858,24.3213796 L0.0214896858,4.60146157 C0.0270724964,3.37693675 0.396362732,2.55300415 1.12936039,2.12966378 C1.63009238,1.84046769 3.36087145,0.702539264 4.8056412,0.211789425 C5.25241438,0.0600324655 5.77145717,0.0600324655 6.36276957,0.211789425 Z" id="Path-2"></path>
                </g>
            </g>
        </g>
    </g>
</svg>